<svg xmlns="http://www.w3.org/2000/svg" width="315.255" height="50.451">
  <path fill="#FFF" d="M220.943 26.39c0-5.414-1.235-7.676-4.179-7.676-3.702 0-4.183 4.659-4.183 12.271 0 8.363.48 12.199 4.183 12.199 3.289 0 4.04-2.265 4.179-8.773h10.282c-.071 11.445-4.591 16.041-14.668 16.041-13.98 0-15.08-9.803-15.08-20.838 0-10.417 3.017-18.164 15.08-18.164 11.651 0 14.668 6.098 14.668 14.94h-10.282zM233.075 31.053c0-11.107 2.47-19.604 15.287-19.604 13.568 0 15.286 8.293 15.286 19.397 0 11.101-2.473 19.604-15.286 19.604-13.572.001-15.287-8.294-15.287-19.397zm15.352-12.339c-3.288 0-4.249 3.224-4.249 12.204 0 9.048.961 12.266 4.249 12.266 3.426 0 4.112-3.083 4.112-12.199.001-9.188-.686-12.271-4.112-12.271zM267.553 12.407h10.691v4.39h.139c1.575-3.293 4.799-5.348 8.908-5.348 3.22 0 7.474.617 9.116 5.688 2.607-4.318 5.071-5.688 9.184-5.688 6.307 0 9.664 3.155 9.664 10.28V49.49h-11.104V24.197c0-2.674-1.162-4.251-3.214-4.251-2.131 0-3.979 1.646-3.979 5.279V49.49h-11.105V24.197c0-2.674-1.164-4.251-3.219-4.251-2.124 0-3.977 1.646-3.977 5.279V49.49h-11.104V12.407z"/>
  <path fill="#E0B500" d="M191.518 50.827c3.357 0 6.08-2.729 6.08-6.093a6.086 6.086 0 0 0-12.17 0 6.091 6.091 0 0 0 6.09 6.093z"/>
  <path fill="#FFF" d="M32.055 12.404h10.692v4.389h.135c1.575-3.291 4.801-5.345 8.909-5.345 3.223 0 7.473.619 9.116 5.689 2.607-4.32 5.072-5.689 9.184-5.689 6.309 0 9.667 3.151 9.667 10.278v27.76H68.654V24.193c0-2.671-1.163-4.25-3.223-4.25-2.124 0-3.977 1.646-3.977 5.278v24.265H50.35V24.193c0-2.671-1.167-4.25-3.218-4.25-2.124 0-3.978 1.646-3.978 5.278v24.265h-11.1V12.404zM83.265.55h11.104v15.898h.139c1.853-3.976 5.21-5 8.295-5 9.115 0 10.758 8.291 10.758 19.811 0 13.842-3.973 19.188-11.445 19.188-4.934 0-7.195-2.945-8.017-5.485h-.14v4.524H83.265V.55zm14.874 41.808c4.183 0 4.322-5.69 4.322-11.652 0-6.716-.206-11.171-4.25-11.171-3.77 0-4.044 5.073-4.044 11.651-.001 7.195.682 11.172 3.972 11.172zM116.929 0h11.104v8.497h-11.104V0zm0 12.404h11.104v37.082h-11.104V12.404zM134.546 20.081h-4.593v-7.677h4.593V1.509h11.1v10.895h5.139v7.677h-5.139v18.714c0 2.604.963 3.425 3.567 3.425.476 0 1.095-.067 1.571-.136v7.401a49.753 49.753 0 0 1-6.374.413c-7.674 0-9.865-1.37-9.865-10.008V20.081zM152.09 31.053c0-11.109 2.468-19.605 15.284-19.605 13.576 0 15.29 8.291 15.29 19.394 0 11.105-2.468 19.605-15.29 19.605-13.569 0-15.284-8.294-15.284-19.394zm15.355-12.343c-3.291 0-4.25 3.225-4.25 12.203 0 9.049.96 12.267 4.25 12.267 3.428 0 4.112-3.083 4.112-12.195 0-9.19-.683-12.275-4.112-12.275zM28.743 41.456V22.388c0-7.016-3.26-10.273-10.5-10.871l7-10.185H14.54l-3.785 10.402c-2.18.349-3.966.998-5.541 2.079-2.607 1.781-4.116 4.869-4.188 9.944h9.877c.072-3.225.961-5.075 4.048-5.075 2.472 0 3.5 1.441 3.5 3.707 0 2.809-.615 3.359-3.98 4.252-3.087.821-7.203 1.509-9.944 3.018C1.782 31.165 0 34.802 0 39.125c0 8.028 3.635 11.318 9.877 11.318 3.707 0 7.203-1.921 8.711-5.211h.139c.068 1.437.207 2.945.619 4.251h10.699c-1.302-1.651-1.302-5.215-1.302-8.027zm-10.361-3.771c0 3.703-2.124 5.075-4.457 5.075-2.06 0-3.227-1.786-3.227-4.734 0-2.059.551-3.224 1.715-4.118 1.032-.822 2.539-.886 6.039-2.743.001 1.511-.07 3.432-.07 6.52z"/>
</svg>